SplineFontDB: 3.2
FontName: Konemo_Modern
FullName: Konemo Modern
FamilyName: Konemo
Weight: Regular
Copyright: Copyright (c) 2024, Jorim
UComments: "2024-12-18: Created with FontForge (http://fontforge.org)"
Version: 001.000
ItalicAngle: 0
UnderlinePosition: -100
UnderlineWidth: 50
Ascent: 800
Descent: 200
InvalidEm: 0
LayerCount: 2
Layer: 0 0 "Back" 1
Layer: 1 0 "Fore" 0
XUID: [1021 604 -182473755 11704715]
FSType: 0
OS2Version: 0
OS2_WeightWidthSlopeOnly: 0
OS2_UseTypoMetrics: 1
CreationTime: 1734519155
ModificationTime: 1739170247
PfmFamily: 17
TTFWeight: 400
TTFWidth: 5
LineGap: 90
VLineGap: 0
OS2TypoAscent: 0
OS2TypoAOffset: 1
OS2TypoDescent: 0
OS2TypoDOffset: 1
OS2TypoLinegap: 90
OS2WinAscent: 0
OS2WinAOffset: 1
OS2WinDescent: 0
OS2WinDOffset: 1
HheadAscent: 0
HheadAOffset: 1
HheadDescent: 0
HheadDOffset: 1
OS2Vendor: 'PfEd'
Lookup: 258 0 0 "nums" { "nums-1" [150,15,0] "nums-2" [150,15,0] } []
Lookup: 258 0 0 "konemo_numbers" { "konemo_numbers-1" [150,15,0] "konemo_numbers-2" [150,15,0] } []
MarkAttachClasses: 1
DEI: 91125
KernClass2: 1 1 "nums-2"
 0 {}
KernClass2: 1 1 "nums-1"
 0 {}
LangName: 1033
Encoding: ISO8859-1
UnicodeInterp: none
NameList: Adobe Glyph List
DisplaySize: -48
AntiAlias: 1
FitToEm: 0
WinInfo: 16 16 4
BeginPrivate: 0
EndPrivate
TeXData: 1 0 0 1153434 576716 384477 445645 1048576 384477 783286 444596 497025 792723 393216 433062 380633 303038 157286 324010 404750 52429 2506097 1059062 262144
AnchorClass2: "middle"""  "right"""  "left"""  "bottom"""  "top""" 
BeginChars: 256 107

StartChar: A
Encoding: 65 65 0
Width: 600
Flags: W
HStem: 376 50<95 574.616> 803 20G<293.5 306.5>
LayerCount: 2
Fore
SplineSet
575 400 m 0
 575 386 564 375 550 375 c 2
 49 376 l 2
 36 376 25 387 25 401 c 0
 25 406 26 410 28 414 c 2
 278 811 l 2
 280 814 287 823 300 823 c 0
 313 823 324 812 324 798 c 0
 324 793 323 789 321 785 c 2
 95 426 l 1
 551 425 l 2
 564 425 575 414 575 400 c 0
EndSplineSet
Validated: 1
EndChar

StartChar: B
Encoding: 66 66 1
Width: 600
Flags: W
HStem: 375 21G<43 56.5 548.5 557> 805 20G<293.5 301.5 543 557> 905 20G<543 557>
VStem: 525 50<675.198 924.802>
LayerCount: 2
Fore
SplineSet
265 727 m 1053
575 400 m 0
 575 386 564 375 550 375 c 0
 547 375 536 376 529 387 c 2
 300 753 l 1
 71 387 l 2
 70 384 63 375 50 375 c 0
 36 375 25 386 25 400 c 0
 25 405 26 409 29 413 c 2
 279 813 l 2
 280 816 287 825 300 825 c 0
 303 825 314 824 321 813 c 2
 571 413 l 2
 574 409 575 405 575 400 c 0
550 675 m 0
 536 675 525 686 525 700 c 2
 525 900 l 2
 525 914 536 925 550 925 c 0
 564 925 575 914 575 900 c 2
 575 700 l 2
 575 686 564 675 550 675 c 0
EndSplineSet
Validated: 1
EndChar

StartChar: a
Encoding: 97 97 2
Width: 400
Flags: W
HStem: 805 20G<68 82>
VStem: 50 50<87 824.802>
LayerCount: 2
Fore
SplineSet
140 717 m 1053
75 -25 m 0
 61 -25 50 -14 50 0 c 2
 50 800 l 2
 50 814 61 825 75 825 c 0
 89 825 100 814 100 800 c 2
 100 87 l 1
 304 413 l 2
 305 416 312 425 325 425 c 0
 339 425 350 414 350 400 c 0
 350 395 349 391 346 387 c 2
 96 -13 l 2
 95 -16 88 -25 75 -25 c 0
EndSplineSet
Validated: 1
EndChar

StartChar: b
Encoding: 98 98 3
Width: 400
Flags: W
HStem: 375 21G<68 84 319.5 332> 805 20G<191 205.5 318 332> 905 20G<318 332>
VStem: 50 49<375.198 415.386> 300 50<375.198 412.38 675.198 924.802>
LayerCount: 2
Fore
SplineSet
350 400 m 0
 350 386 339 375 325 375 c 0
 314 375 304 382 301 393 c 2
 200 716 l 1
 99 393 l 2
 99 392 93 375 75 375 c 0
 61 375 50 386 50 400 c 0
 50 403 50 405 51 407 c 2
 176 807 l 2
 176 808 182 825 200 825 c 0
 211 825 221 818 224 807 c 2
 349 407 l 2
 350 405 350 403 350 400 c 0
325 675 m 0
 311 675 300 686 300 700 c 2
 300 900 l 2
 300 914 311 925 325 925 c 0
 339 925 350 914 350 900 c 2
 350 700 l 2
 350 686 339 675 325 675 c 0
EndSplineSet
Validated: 1
EndChar

StartChar: c
Encoding: 99 99 4
Width: 400
Flags: W
HStem: -25 50<165.608 235.281> 775 50<190.877 249.802>
VStem: 50 50<185.515 589.048> 300 50<189.926 424.802>
LayerCount: 2
Fore
SplineSet
50 400 m 0
 50 541 96 825 225 825 c 0
 239 825 250 814 250 800 c 0
 250 786 239 775 225 775 c 0
 183 775 148 695 130 626 c 0
 110 552 100 465 100 400 c 0
 100 360 102 182 146 81 c 0
 159 51 177 25 200 25 c 0
 263 25 300 209 300 400 c 0
 300 414 311 425 325 425 c 0
 339 425 350 414 350 400 c 0
 350 331 344 84 263 3 c 0
 246 -14 225 -25 200 -25 c 0
 147 -25 99 21 71 159 c 0
 55 238 50 330 50 400 c 0
EndSplineSet
Validated: 1
EndChar

StartChar: d
Encoding: 100 100 5
Width: 500
Flags: W
HStem: 375 21G<68 81.5> 805 20G<318.5 332 418 432> 905 20G<418 432>
VStem: 400 50<675.198 924.802>
LayerCount: 2
Fore
SplineSet
325 425 m 0
 339 425 350 414 350 400 c 0
 350 395 349 391 346 387 c 2
 96 -13 l 2
 95 -16 88 -25 75 -25 c 0
 61 -25 50 -14 50 0 c 0
 50 5 51 9 54 13 c 2
 304 413 l 2
 305 416 312 425 325 425 c 0
75 375 m 0
 61 375 50 386 50 400 c 0
 50 405 51 409 54 413 c 2
 304 813 l 2
 305 816 312 825 325 825 c 0
 339 825 350 814 350 800 c 0
 350 795 349 791 346 787 c 2
 96 387 l 2
 95 384 88 375 75 375 c 0
425 675 m 0
 411 675 400 686 400 700 c 2
 400 900 l 2
 400 914 411 925 425 925 c 0
 439 925 450 914 450 900 c 2
 450 700 l 2
 450 686 439 675 425 675 c 0
EndSplineSet
Validated: 1
EndChar

StartChar: e
Encoding: 101 101 6
Width: 400
Flags: W
HStem: 805 20G<318 332>
VStem: 300 50<87 824.802>
LayerCount: 2
Fore
SplineSet
166 694 m 1053
350 0 m 2
 350 -14 339 -25 325 -25 c 0
 322 -25 311 -24 304 -13 c 2
 54 387 l 2
 51 391 50 395 50 400 c 0
 50 414 61 425 75 425 c 0
 78 425 89 424 96 413 c 2
 300 87 l 1
 300 800 l 2
 300 814 311 825 325 825 c 0
 339 825 350 814 350 800 c 2
 350 0 l 2
EndSplineSet
Validated: 1
EndChar

StartChar: f
Encoding: 102 102 7
Width: 400
Flags: W
HStem: -25 50<182.627 260.685> 775 50<150.198 216.625>
VStem: 50 50<184.269 424.802> 300 50<183.806 615.731>
LayerCount: 2
Fore
SplineSet
300 400 m 0
 300 604 248 775 175 775 c 0
 161 775 150 786 150 800 c 0
 150 814 161 825 175 825 c 0
 299 825 350 605 350 400 c 0
 350 398 350 395 350 393 c 0
 350 216 349 62 288 1 c 0
 272 -15 250 -25 225 -25 c 0
 101 -25 50 195 50 400 c 0
 50 414 61 425 75 425 c 0
 89 425 100 414 100 400 c 0
 100 196 152 25 225 25 c 0
 238 25 275 26 291 150 c 0
 300 219 300 309 300 400 c 0
EndSplineSet
Validated: 1
EndChar

StartChar: g
Encoding: 103 103 8
Width: 500
Flags: W
HStem: 805 20G<318.5 332 418 432> 905 20G<418 432>
VStem: 400 50<675.198 924.802>
LayerCount: 2
Fore
SplineSet
350 0 m 0
 350 -14 339 -25 325 -25 c 0
 322 -25 311 -24 304 -13 c 2
 54 387 l 2
 51 391 50 395 50 400 c 0
 50 405 51 409 54 413 c 2
 304 813 l 2
 305 816 312 825 325 825 c 0
 339 825 350 814 350 800 c 0
 350 795 349 791 346 787 c 2
 104 400 l 1
 346 13 l 2
 349 9 350 5 350 0 c 0
425 675 m 0
 411 675 400 686 400 700 c 2
 400 900 l 2
 400 914 411 925 425 925 c 0
 439 925 450 914 450 900 c 2
 450 700 l 2
 450 686 439 675 425 675 c 0
EndSplineSet
Validated: 1
EndChar

StartChar: h
Encoding: 104 104 9
Width: 400
Flags: W
HStem: -25 50<160.335 239.665> 775 50<160.335 239.665>
VStem: 50 50<186.315 613.907> 300 50<186.093 613.685>
LayerCount: 2
Fore
SplineSet
200 825 m 0
 227 825 251 813 269 795 c 0
 299 765 350 688 350 400 c 0
 350 111 299 35 269 5 c 0
 251 -13 227 -25 200 -25 c 0
 173 -25 149 -13 131 5 c 0
 101 35 50 112 50 400 c 0
 50 689 101 765 131 795 c 0
 149 813 173 825 200 825 c 0
200 775 m 0
 187 775 177 771 166 760 c 0
 147 741 130 699 119 644 c 0
 105 576 100 488 100 400 c 0
 100 312 105 224 119 156 c 0
 130 101 147 59 166 40 c 0
 177 29 187 25 200 25 c 0
 213 25 223 29 234 40 c 0
 253 59 270 101 281 156 c 0
 295 224 300 312 300 400 c 0
 300 488 295 576 281 644 c 0
 270 699 253 741 234 760 c 0
 223 771 213 775 200 775 c 0
EndSplineSet
Validated: 1
EndChar

StartChar: j
Encoding: 106 106 10
Width: 400
Flags: W
HStem: -25 50<165.608 235.281> 775 50<190.877 249.802> 905 20G<318 332> 905 20G<318 332>
VStem: 50 50<185.515 589.048> 300 50<189.926 424.802 675.198 924.802>
LayerCount: 2
Fore
SplineSet
50 400 m 0xcc
 50 541 96 825 225 825 c 0
 239 825 250 814 250 800 c 0
 250 786 239 775 225 775 c 0
 183 775 148 695 130 626 c 0
 110 552 100 465 100 400 c 0
 100 360 102 182 146 81 c 0
 159 51 177 25 200 25 c 0
 263 25 300 209 300 400 c 0
 300 414 311 425 325 425 c 0
 339 425 350 414 350 400 c 0
 350 331 344 84 263 3 c 0
 246 -14 225 -25 200 -25 c 0
 147 -25 99 21 71 159 c 0
 55 238 50 330 50 400 c 0xcc
325 675 m 0
 311 675 300 686 300 700 c 2
 300 900 l 2
 300 914 311 925 325 925 c 0xec
 339 925 350 914 350 900 c 2
 350 700 l 2
 350 686 339 675 325 675 c 0
EndSplineSet
Validated: 1
EndChar

StartChar: k
Encoding: 107 107 11
Width: 400
Flags: W
HStem: 805 20G<318.5 332>
VStem: 50 300
LayerCount: 2
Fore
SplineSet
350 0 m 0
 350 -14 339 -25 325 -25 c 0
 322 -25 311 -24 304 -13 c 2
 54 387 l 2
 51 391 50 395 50 400 c 0
 50 405 51 409 54 413 c 2
 304 813 l 2
 305 816 312 825 325 825 c 0
 339 825 350 814 350 800 c 0
 350 795 349 791 346 787 c 2
 104 400 l 1
 346 13 l 2
 349 9 350 5 350 0 c 0
EndSplineSet
Validated: 1
EndChar

StartChar: l
Encoding: 108 108 12
Width: 500
Flags: W
HStem: -25 50<160.335 239.665> 775 50<160.335 239.665> 905 20G<418 432> 905 20G<418 432>
VStem: 50 50<186.315 613.907> 300 50<186.093 613.685> 400 50<675.198 924.802>
LayerCount: 2
Fore
SplineSet
200 775 m 0xce
 187 775 177 771 166 760 c 0
 147 741 130 699 119 644 c 0
 105 576 100 488 100 400 c 0
 100 312 105 224 119 156 c 0
 130 101 147 59 166 40 c 0
 177 29 187 25 200 25 c 0
 213 25 223 29 234 40 c 0
 253 59 270 101 281 156 c 0
 295 224 300 312 300 400 c 0
 300 488 295 576 281 644 c 0
 270 699 253 741 234 760 c 0
 223 771 213 775 200 775 c 0xce
200 825 m 0
 227 825 251 813 269 795 c 0
 299 765 350 688 350 400 c 0
 350 111 299 35 269 5 c 0
 251 -13 227 -25 200 -25 c 0
 173 -25 149 -13 131 5 c 0
 101 35 50 112 50 400 c 0
 50 689 101 765 131 795 c 0
 149 813 173 825 200 825 c 0
425 675 m 0
 411 675 400 686 400 700 c 2
 400 900 l 2
 400 914 411 925 425 925 c 0xee
 439 925 450 914 450 900 c 2
 450 700 l 2
 450 686 439 675 425 675 c 0
EndSplineSet
Validated: 1
EndChar

StartChar: m
Encoding: 109 109 13
Width: 400
Flags: W
HStem: 805 20G<68 76.5>
VStem: 50 300
LayerCount: 2
Fore
SplineSet
163 721 m 1053
75 -25 m 0
 61 -25 50 -14 50 0 c 0
 50 5 51 9 54 13 c 2
 296 400 l 1
 54 787 l 2
 51 791 50 795 50 800 c 0
 50 814 61 825 75 825 c 0
 78 825 89 824 96 813 c 2
 346 413 l 2
 349 409 350 405 350 400 c 0
 350 395 349 391 346 387 c 2
 96 -13 l 2
 95 -16 88 -25 75 -25 c 0
EndSplineSet
Validated: 1
EndChar

StartChar: n
Encoding: 110 110 14
Width: 400
Flags: W
HStem: 375 21G<323.5 332> 805 20G<68 76.5>
VStem: 50 300<395 405>
LayerCount: 2
Fore
SplineSet
350 0 m 0
 350 -14 339 -25 325 -25 c 0
 322 -25 311 -24 304 -13 c 2
 54 387 l 2
 51 391 50 395 50 400 c 0
 50 414 61 425 75 425 c 0
 78 425 89 424 96 413 c 2
 346 13 l 2
 349 9 350 5 350 0 c 0
350 400 m 0
 350 386 339 375 325 375 c 0
 322 375 311 376 304 387 c 2
 54 787 l 2
 51 791 50 795 50 800 c 0
 50 814 61 825 75 825 c 0
 78 825 89 824 96 813 c 6
 346 413 l 6
 349 409 350 405 350 400 c 0
EndSplineSet
Validated: 1
EndChar

StartChar: o
Encoding: 111 111 15
Width: 400
Flags: W
HStem: 375 21G<68 81.5> 805 20G<318.5 332>
VStem: 300 50<-24.8024 713>
LayerCount: 2
Fore
SplineSet
325 -25 m 0
 311 -25 300 -14 300 0 c 2
 300 713 l 1
 96 387 l 2
 95 384 88 375 75 375 c 0
 61 375 50 386 50 400 c 0
 50 405 51 409 54 413 c 2
 304 813 l 2
 305 816 312 825 325 825 c 0
 339 825 350 814 350 800 c 2
 350 0 l 2
 350 -14 339 -25 325 -25 c 0
EndSplineSet
Validated: 1
EndChar

StartChar: p
Encoding: 112 112 16
Width: 400
Flags: W
HStem: 375 21G<68 84 319.5 332> 805 20G<191 205.5>
VStem: 50 49<375.198 415.386> 301 49<375.198 415.386>
LayerCount: 2
Fore
SplineSet
350 400 m 0
 350 386 339 375 325 375 c 0
 314 375 304 382 301 393 c 2
 200 716 l 1
 99 393 l 2
 99 392 93 375 75 375 c 0
 61 375 50 386 50 400 c 0
 50 403 50 405 51 407 c 2
 176 807 l 2
 176 808 182 825 200 825 c 0
 211 825 221 818 224 807 c 2
 349 407 l 2
 350 405 350 403 350 400 c 0
EndSplineSet
Validated: 1
EndChar

StartChar: q
Encoding: 113 113 17
Width: 400
Flags: W
VStem: 301 49<384.614 424.802>
LayerCount: 2
Fore
SplineSet
325 425 m 0
 339 425 350 414 350 400 c 0
 350 397 350 395 349 393 c 2
 224 -7 l 2
 224 -8 218 -25 200 -25 c 0
 189 -25 179 -18 176 -7 c 2
 51 393 l 2
 50 395 50 397 50 400 c 0
 50 414 61 425 75 425 c 0
 86 425 96 418 99 407 c 2
 200 84 l 1
 301 407 l 2
 301 408 307 425 325 425 c 0
EndSplineSet
Validated: 1
EndChar

StartChar: r
Encoding: 114 114 18
Width: 500
Flags: W
HStem: -25 50<150.198 216.625> 375 21G<68 82> 775 50<182.717 259.111> 905 20G<418 432> 905 20G<418 432>
VStem: 50 50<375.198 614.706> 300 50<185.294 613.116> 400 50<675.198 924.802>
LayerCount: 2
Fore
SplineSet
225 775 m 4xe7
 152 775 100 604 100 400 c 4
 100 386 89 375 75 375 c 0
 61 375 50 386 50 400 c 0
 50 542 75 718 149 791 c 0
 169 811 195 825 225 825 c 0
 315 825 334 709 340 657 c 0
 350 584 350 495 350 407 c 0
 350 405 350 400 350 400 c 0
 350 258 325 82 251 9 c 0
 231 -11 205 -25 175 -25 c 0
 161 -25 150 -14 150 0 c 0
 150 14 161 25 175 25 c 0
 248 25 300 196 300 400 c 0
 300 548 300 716 253 763 c 0
 245 771 237 775 225 775 c 4xe7
425 675 m 0
 411 675 400 686 400 700 c 2
 400 900 l 2
 400 914 411 925 425 925 c 0xf7
 439 925 450 914 450 900 c 2
 450 700 l 2
 450 686 439 675 425 675 c 0
EndSplineSet
Validated: 1
EndChar

StartChar: s
Encoding: 115 115 19
Width: 400
Flags: W
HStem: -25 50<183.375 249.802> 375 21G<318 332> 775 50<139.315 217.373>
VStem: 50 50<184.269 616.194> 300 50<375.198 615.731>
LayerCount: 2
Fore
SplineSet
175 825 m 0
 299 825 350 605 350 400 c 0
 350 386 339 375 325 375 c 0
 311 375 300 386 300 400 c 0
 300 604 248 775 175 775 c 0
 162 775 125 774 109 650 c 0
 100 581 100 491 100 400 c 0
 100 196 152 25 225 25 c 0
 239 25 250 14 250 0 c 0
 250 -14 239 -25 225 -25 c 0
 101 -25 50 195 50 400 c 0
 50 402 50 405 50 407 c 0
 50 584 51 738 112 799 c 0
 128 815 150 825 175 825 c 0
EndSplineSet
Validated: 1
EndChar

StartChar: t
Encoding: 116 116 20
Width: 400
Flags: W
HStem: 375 21G<68 81.5> 805 20G<318.5 332>
VStem: 50 300<395 405>
LayerCount: 2
Fore
SplineSet
325 425 m 0
 339 425 350 414 350 400 c 0
 350 395 349 391 346 387 c 2
 96 -13 l 2
 95 -16 88 -25 75 -25 c 0
 61 -25 50 -14 50 0 c 0
 50 5 51 9 54 13 c 2
 304 413 l 2
 305 416 312 425 325 425 c 0
75 375 m 0
 61 375 50 386 50 400 c 0
 50 405 51 409 54 413 c 2
 304 813 l 2
 305 816 312 825 325 825 c 0
 339 825 350 814 350 800 c 0
 350 795 349 791 346 787 c 2
 96 387 l 2
 95 384 88 375 75 375 c 0
EndSplineSet
Validated: 1
EndChar

StartChar: u
Encoding: 117 117 21
Width: 400
Flags: W
HStem: 375 21G<323.5 332> 805 20G<68 76.5>
VStem: 50 50<-24.8024 713>
LayerCount: 2
Fore
SplineSet
350 400 m 0
 350 386 339 375 325 375 c 0
 322 375 311 376 304 387 c 2
 100 713 l 1
 100 0 l 2
 100 -14 89 -25 75 -25 c 0
 61 -25 50 -14 50 0 c 2
 50 800 l 2
 50 814 61 825 75 825 c 0
 78 825 89 824 96 813 c 6
 346 413 l 6
 349 409 350 405 350 400 c 0
EndSplineSet
Validated: 1
EndChar

StartChar: v
Encoding: 118 118 22
Width: 500
Flags: W
HStem: -25 50<182.627 260.685> 775 50<150.198 216.625> 905 20G<418 432> 905 20G<418 432>
VStem: 50 50<184.269 424.802> 300 50<183.806 615.731> 400 50<675.198 924.802>
LayerCount: 2
Fore
SplineSet
300 400 m 0xce
 300 604 248 775 175 775 c 0
 161 775 150 786 150 800 c 0
 150 814 161 825 175 825 c 0
 299 825 350 605 350 400 c 0
 350 398 350 395 350 393 c 0
 350 216 349 62 288 1 c 0
 272 -15 250 -25 225 -25 c 0
 101 -25 50 195 50 400 c 0
 50 414 61 425 75 425 c 0
 89 425 100 414 100 400 c 0
 100 196 152 25 225 25 c 0
 238 25 275 26 291 150 c 0
 300 219 300 309 300 400 c 0xce
425 675 m 0
 411 675 400 686 400 700 c 2
 400 900 l 2
 400 914 411 925 425 925 c 0xee
 439 925 450 914 450 900 c 2
 450 700 l 2
 450 686 439 675 425 675 c 0
EndSplineSet
Validated: 1
EndChar

StartChar: w
Encoding: 119 119 23
Width: 400
Flags: W
HStem: 375 50<120 349.802> 805 20G<318.5 332>
VStem: 50 300<380.75 419.25>
LayerCount: 2
Fore
SplineSet
325 825 m 0
 339 825 350 814 350 800 c 0
 350 795 349 791 346 787 c 2
 120 425 l 1
 325 425 l 2
 339 425 350 414 350 400 c 0
 350 386 339 375 325 375 c 2
 120 375 l 1
 346 13 l 2
 349 9 350 5 350 0 c 0
 350 -14 339 -25 325 -25 c 0
 322 -25 311 -24 304 -13 c 2
 54 387 l 2
 51 391 50 395 50 400 c 0
 50 405 51 409 54 413 c 2
 304 813 l 2
 305 816 312 825 325 825 c 0
EndSplineSet
Validated: 1
EndChar

StartChar: x
Encoding: 120 120 24
Width: 400
Flags: W
HStem: -25 50<150.198 216.625> 375 21G<68 82> 775 50<182.717 259.111>
VStem: 50 50<375.198 614.706> 300 50<185.294 613.116>
LayerCount: 2
Fore
SplineSet
225 775 m 4
 152 775 100 604 100 400 c 4
 100 386 89 375 75 375 c 0
 61 375 50 386 50 400 c 0
 50 542 75 718 149 791 c 0
 169 811 195 825 225 825 c 0
 315 825 334 709 340 657 c 0
 350 584 350 495 350 407 c 0
 350 405 350 400 350 400 c 0
 350 258 325 82 251 9 c 0
 231 -11 205 -25 175 -25 c 0
 161 -25 150 -14 150 0 c 0
 150 14 161 25 175 25 c 0
 248 25 300 196 300 400 c 0
 300 548 300 716 253 763 c 0
 245 771 237 775 225 775 c 4
EndSplineSet
Validated: 1
EndChar

StartChar: z
Encoding: 122 122 25
Width: 500
Flags: W
HStem: -25 50<183.375 249.802> 375 21G<318 332> 775 50<139.315 217.373> 905 20G<418 432> 905 20G<418 432>
VStem: 50 50<184.269 616.194> 300 50<375.198 615.731> 400 50<675.198 924.802>
LayerCount: 2
Fore
SplineSet
175 825 m 0xe7
 299 825 350 605 350 400 c 0
 350 386 339 375 325 375 c 0
 311 375 300 386 300 400 c 0
 300 604 248 775 175 775 c 0
 162 775 125 774 109 650 c 0
 100 581 100 491 100 400 c 0
 100 196 152 25 225 25 c 0
 239 25 250 14 250 0 c 0
 250 -14 239 -25 225 -25 c 0
 101 -25 50 195 50 400 c 0
 50 402 50 405 50 407 c 0
 50 584 51 738 112 799 c 0
 128 815 150 825 175 825 c 0xe7
425 675 m 0
 411 675 400 686 400 700 c 2
 400 900 l 2
 400 914 411 925 425 925 c 0xf7
 439 925 450 914 450 900 c 2
 450 700 l 2
 450 686 439 675 425 675 c 0
EndSplineSet
Validated: 1
EndChar

StartChar: one
Encoding: 49 49 26
Width: 250
Flags: W
HStem: 375 21G<-7 6.5> 805 20G<243.5 257>
VStem: -25 300
LayerCount: 2
Fore
SplineSet
0 375 m 0
 -14 375 -25 386 -25 400 c 0
 -25 405 -24 409 -21 413 c 2
 229 813 l 2
 230 816 237 825 250 825 c 0
 264 825 275 814 275 800 c 0
 275 795 274 791 271 787 c 2
 21 387 l 2
 20 384 13 375 0 375 c 0
EndSplineSet
Validated: 1
EndChar

StartChar: two
Encoding: 50 50 27
Width: 250
Flags: W
HStem: 375 21G<248.5 257> 805 20G<-7 1.5>
VStem: -25 300
LayerCount: 2
Fore
SplineSet
106 751 m 1053
275 400 m 0
 275 386 264 375 250 375 c 0
 247 375 236 376 229 387 c 2
 -21 787 l 2
 -24 791 -25 795 -25 800 c 0
 -25 814 -14 825 0 825 c 0
 3 825 14 824 21 813 c 2
 271 413 l 2
 274 409 275 405 275 400 c 0
EndSplineSet
Validated: 1
EndChar

StartChar: three
Encoding: 51 51 28
Width: 250
Flags: W
VStem: -25 300
LayerCount: 2
Fore
SplineSet
0 -25 m 0
 -14 -25 -25 -14 -25 0 c 0
 -25 5 -24 9 -21 13 c 2
 229 413 l 2
 230 416 237 425 250 425 c 0
 264 425 275 414 275 400 c 0
 275 395 274 391 271 387 c 2
 21 -13 l 2
 20 -16 13 -25 0 -25 c 0
EndSplineSet
Validated: 1
EndChar

StartChar: four
Encoding: 52 52 29
Width: 250
Flags: W
VStem: -25 300
LayerCount: 2
Fore
SplineSet
108 207 m 1053
275 0 m 0
 275 -14 264 -25 250 -25 c 0
 247 -25 236 -24 229 -13 c 2
 -21 387 l 2
 -24 391 -25 395 -25 400 c 0
 -25 414 -14 425 0 425 c 0
 3 425 14 424 21 413 c 2
 271 13 l 2
 274 9 275 5 275 0 c 0
EndSplineSet
Validated: 1
EndChar

StartChar: five
Encoding: 53 53 30
Width: 500
Flags: W
HStem: 375 50<-24.8024 524.802>
LayerCount: 2
Fore
SplineSet
234 235 m 1053
525 400 m 0
 525 386 514 375 500 375 c 2
 0 375 l 2
 -14 375 -25 386 -25 400 c 0
 -25 414 -14 425 0 425 c 2
 500 425 l 2
 514 425 525 414 525 400 c 0
EndSplineSet
Validated: 1
EndChar

StartChar: zero
Encoding: 48 48 31
Width: 600
Flags: W
HStem: 375 21G<43 56.5> 805 20G<293.5 307>
VStem: 275 50<87 713>
LayerCount: 2
Fore
SplineSet
300 825 m 0
 314 825 325 814 325 800 c 2
 325 87 l 1
 529 413 l 2
 530 416 537 425 550 425 c 0
 564 425 575 414 575 400 c 0
 575 395 574 391 571 387 c 2
 321 -13 l 2
 320 -16 313 -25 300 -25 c 0
 286 -25 275 -14 275 0 c 2
 275 713 l 1
 71 387 l 2
 70 384 63 375 50 375 c 0
 36 375 25 386 25 400 c 0
 25 405 26 409 29 413 c 2
 279 813 l 2
 280 816 287 825 300 825 c 0
EndSplineSet
Validated: 1
EndChar

StartChar: period
Encoding: 46 46 32
Width: 150
Flags: W
HStem: -105 130
VStem: 50 100
LayerCount: 2
Fore
SplineSet
150 -80 m 0
 150 -94 139 -105 125 -105 c 0
 122 -105 111 -104 104 -93 c 2
 54 -13 l 2
 51 -9 50 -5 50 0 c 0
 50 14 61 25 75 25 c 0
 78 25 89 24 96 13 c 2
 146 -67 l 2
 149 -71 150 -75 150 -80 c 0
EndSplineSet
Validated: 1
EndChar

StartChar: comma
Encoding: 44 44 33
Width: 150
Flags: W
HStem: -105 130
VStem: 0 100
LayerCount: 2
Fore
SplineSet
75 25 m 0
 89 25 100 14 100 0 c 0
 100 -5 99 -9 96 -13 c 0
 45 -96 45 -96 43 -98 c 0
 38 -103 31 -105 25 -105 c 0
 11 -105 0 -94 0 -80 c 0
 0 -75 1 -71 4 -67 c 0
 55 16 55 16 57 18 c 0
 62 23 69 25 75 25 c 0
EndSplineSet
Validated: 1
EndChar

StartChar: exclam
Encoding: 33 33 34
Width: 400
Flags: HW
HStem: 375 50<120 300> 805 20G<318.5 332>
VStem: 300 50<-24.8024 375 425 713>
LayerCount: 2
Fore
SplineSet
1005 905 m 1049
325 -25 m 0
 311 -25 300 -14 300 0 c 2
 300 375 l 1
 75 375 l 2
 61 375 50 386 50 400 c 0
 50 405 51 409 54 413 c 2
 304 813 l 2
 305 816 312 825 325 825 c 0
 339 825 350 814 350 800 c 2
 350 0 l 2
 350 -14 339 -25 325 -25 c 0
300 425 m 1
 300 713 l 1
 120 425 l 1
 300 425 l 1
EndSplineSet
EndChar

StartChar: question
Encoding: 63 63 35
Width: 400
Flags: HW
HStem: 375 50<100 280> 805 20G<68 81.5>
VStem: 50 50<-24.8024 375 425 713>
LayerCount: 2
Fore
SplineSet
75 -25 m 0
 61 -25 50 -14 50 0 c 2
 50 800 l 2
 50 814 61 825 75 825 c 0
 88 825 95 816 96 813 c 2
 346 413 l 2
 349 409 350 405 350 400 c 0
 350 386 339 375 325 375 c 2
 100 375 l 1
 100 0 l 2
 100 -14 89 -25 75 -25 c 0
100 425 m 1
 280 425 l 1
 100 713 l 1
 100 425 l 1
EndSplineSet
EndChar

StartChar: plus
Encoding: 43 43 36
Width: 600
Flags: W
HStem: 375 50<25.1976 275 325 574.802> 805 20G<293 307>
VStem: 275 50<425 824.802>
LayerCount: 2
Fore
SplineSet
275 800 m 2
 275 814 286 825 300 825 c 0
 314 825 325 814 325 800 c 2
 325 425 l 1
 550 425 l 2
 564 425 575 414 575 400 c 0
 575 386 564 375 550 375 c 0
 50 375 50 375 50 375 c 2
 36 375 25 386 25 400 c 0
 25 414 36 425 50 425 c 2
 275 425 l 1
 275 800 l 2
EndSplineSet
Validated: 1
EndChar

StartChar: hyphen
Encoding: 45 45 37
Width: 600
Flags: W
HStem: 375 50<25.1976 275 325 574.802>
VStem: 275 50<-24.8024 375>
LayerCount: 2
Fore
SplineSet
275 0 m 2
 275 375 l 1
 50 375 l 2
 36 375 25 386 25 400 c 0
 25 414 36 425 50 425 c 2
 50 425 50 425 550 425 c 0
 564 425 575 414 575 400 c 0
 575 386 564 375 550 375 c 2
 325 375 l 1
 325 0 l 2
 325 -14 314 -25 300 -25 c 0
 286 -25 275 -14 275 0 c 2
EndSplineSet
Validated: 1
EndChar

StartChar: asterisk
Encoding: 42 42 38
Width: 400
Flags: HW
HStem: 375 50<100 349.802> 805 20G<68 82>
VStem: 50 50<-24.8024 375 425 824.802>
LayerCount: 2
Fore
SplineSet
75 825 m 0
 89 825 100 814 100 800 c 2
 100 425 l 1
 325 425 l 2
 339 425 350 414 350 400 c 0
 350 386 339 375 325 375 c 2
 100 375 l 1
 100 0 l 2
 100 -14 89 -25 75 -25 c 0
 61 -25 50 -14 50 0 c 0
 50 800 50 800 50 800 c 2
 50 814 61 825 75 825 c 0
EndSplineSet
EndChar

StartChar: slash
Encoding: 47 47 39
Width: 400
Flags: HW
HStem: 375 50<50.1976 300> 805 20G<318 332>
VStem: 300 50<-24.8024 375 425 824.802>
LayerCount: 2
Fore
SplineSet
325 825 m 0
 339 825 350 814 350 800 c 2
 350 800 350 800 350 0 c 0
 350 -14 339 -25 325 -25 c 0
 311 -25 300 -14 300 0 c 2
 300 375 l 1
 75 375 l 2
 61 375 50 386 50 400 c 0
 50 414 61 425 75 425 c 2
 300 425 l 1
 300 800 l 2
 300 814 311 825 325 825 c 0
EndSplineSet
EndChar

StartChar: equal
Encoding: 61 61 40
Width: 600
Flags: W
HStem: 375 50<25.1976 275 325 574.802> 805 20G<293 307>
VStem: 275 50<-24.8024 375 425 824.802>
LayerCount: 2
Fore
SplineSet
300 825 m 0
 314 825 325 814 325 800 c 2
 325 425 l 1
 550 425 l 2
 564 425 575 414 575 400 c 0
 575 386 564 375 550 375 c 2
 325 375 l 1
 325 0 l 2
 325 -14 314 -25 300 -25 c 0
 286 -25 275 -14 275 0 c 2
 275 375 l 1
 50 375 l 2
 36 375 25 386 25 400 c 0
 25 414 36 425 50 425 c 2
 275 425 l 5
 275 800 l 6
 275 814 286 825 300 825 c 0
EndSplineSet
Validated: 1
EndChar

StartChar: bar
Encoding: 124 124 41
Width: 150
Flags: W
HStem: 805 20G<68 82>
VStem: 50 50<-24.8024 824.802>
LayerCount: 2
Fore
SplineSet
75 -25 m 0
 61 -25 50 -14 50 0 c 2
 50 800 l 2
 50 814 61 825 75 825 c 0
 89 825 100 814 100 800 c 2
 100 0 l 2
 100 -14 89 -25 75 -25 c 0
EndSplineSet
Validated: 1
EndChar

StartChar: C
Encoding: 67 67 74
Width: 600
Flags: W
HStem: 805 20G<301.5 315>
LayerCount: 2
Fore
SplineSet
263 714 m 1053
550 425 m 0
 564 425 575 414 575 400 c 0
 575 395 574 391 571 387 c 2
 321 -13 l 2
 320 -16 313 -25 300 -25 c 0
 297 -25 286 -24 279 -13 c 2
 29 387 l 2
 26 391 25 395 25 400 c 0
 25 405 26 409 29 414 c 2
 287 814 l 2
 289 816 295 825 308 825 c 0
 322 825 333 814 333 800 c 0
 333 795 332 791 329 786 c 2
 80 400 l 1
 300 47 l 1
 529 413 l 2
 530 416 537 425 550 425 c 0
EndSplineSet
Validated: 1
EndChar

StartChar: D
Encoding: 68 68 75
Width: 600
Flags: W
HStem: 375 21G<43 56.5> 805 20G<293.5 307 543 557> 905 20G<543 557>
VStem: 525 50<675.198 924.802>
LayerCount: 2
Fore
SplineSet
300 -25 m 0
 286 -25 275 -14 275 0 c 0
 275 5 276 9 279 13 c 2
 529 413 l 2
 530 416 537 425 550 425 c 0
 564 425 575 414 575 400 c 0
 575 395 574 391 571 387 c 2
 321 -13 l 2
 320 -16 313 -25 300 -25 c 0
50 375 m 0
 36 375 25 386 25 400 c 0
 25 405 26 409 29 413 c 2
 279 813 l 2
 280 816 287 825 300 825 c 0
 314 825 325 814 325 800 c 0
 325 795 324 791 321 787 c 2
 71 387 l 2
 70 384 63 375 50 375 c 0
550 675 m 0
 536 675 525 686 525 700 c 2
 525 900 l 2
 525 914 536 925 550 925 c 0
 564 925 575 914 575 900 c 2
 575 700 l 2
 575 686 564 675 550 675 c 0
EndSplineSet
Validated: 1
EndChar

StartChar: E
Encoding: 69 69 76
Width: 600
Flags: W
HStem: 375 50<25.1976 505> 805 20G<293 301.5>
LayerCount: 2
Fore
SplineSet
267 758 m 1053
575 400 m 0
 575 386 564 375 550 375 c 2
 50 375 l 2
 36 375 25 386 25 400 c 0
 25 414 36 425 50 425 c 2
 505 425 l 1
 279 787 l 2
 276 791 275 795 275 800 c 0
 275 814 286 825 300 825 c 0
 303 825 314 824 321 813 c 2
 571 413 l 2
 574 409 575 405 575 400 c 0
EndSplineSet
Validated: 1
EndChar

StartChar: F
Encoding: 70 70 77
Width: 600
Flags: W
HStem: 805 20G<293 301.5>
LayerCount: 2
Fore
SplineSet
275 800 m 0
 275 814 286 825 300 825 c 0
 303 825 314 824 321 813 c 2
 571 413 l 2
 574 409 575 405 575 400 c 0
 575 395 574 391 571 387 c 2
 321 -13 l 2
 320 -16 313 -25 300 -25 c 0
 297 -25 286 -24 279 -13 c 2
 29 387 l 2
 26 391 25 395 25 400 c 0
 25 414 36 425 50 425 c 0
 53 425 64 424 71 413 c 2
 300 47 l 1
 521 400 l 1
 279 787 l 2
 276 791 275 795 275 800 c 0
EndSplineSet
Validated: 1
EndChar

StartChar: G
Encoding: 71 71 78
Width: 500
Flags: W
HStem: 805 20G<293.5 307 443 457> 905 20G<443 457>
VStem: 425 50<675.198 924.802>
LayerCount: 2
Fore
SplineSet
325 0 m 0
 325 -14 314 -25 300 -25 c 0
 297 -25 286 -24 279 -13 c 2
 29 387 l 2
 26 391 25 395 25 400 c 0
 25 405 26 409 29 413 c 2
 279 813 l 2
 280 816 287 825 300 825 c 0
 314 825 325 814 325 800 c 0
 325 795 324 791 321 787 c 2
 79 400 l 1
 321 13 l 2
 324 9 325 5 325 0 c 0
450 675 m 0
 436 675 425 686 425 700 c 2
 425 900 l 2
 425 914 436 925 450 925 c 0
 464 925 475 914 475 900 c 2
 475 700 l 2
 475 686 464 675 450 675 c 0
EndSplineSet
Validated: 1
EndChar

StartChar: H
Encoding: 72 72 79
Width: 600
Flags: W
HStem: 805 20G<293.5 301.5>
LayerCount: 2
Fore
SplineSet
521 400 m 1
 300 753 l 1
 79 400 l 1
 300 47 l 1
 521 400 l 1
575 400 m 0
 575 395 574 391 571 387 c 2
 321 -13 l 2
 320 -16 313 -25 300 -25 c 0
 297 -25 286 -24 279 -13 c 0
 29 387 29 387 29 387 c 2
 26 391 25 395 25 400 c 0
 25 405 26 409 29 413 c 2
 279 813 l 2
 280 816 287 825 300 825 c 0
 303 825 314 824 321 813 c 2
 571 413 l 2
 574 409 575 405 575 400 c 0
EndSplineSet
Validated: 1
EndChar

StartChar: J
Encoding: 74 74 80
Width: 600
Flags: W
HStem: 805 20G<293.5 307 543 557> 905 20G<543 557>
VStem: 525 50<675.198 924.802>
LayerCount: 2
Fore
SplineSet
550 425 m 0
 564 425 575 414 575 400 c 0
 575 395 574 391 571 387 c 2
 321 -13 l 2
 320 -16 313 -25 300 -25 c 0
 297 -25 286 -24 279 -13 c 2
 29 387 l 2
 26 391 25 395 25 400 c 0
 25 405 26 409 29 413 c 2
 279 813 l 2
 280 816 287 825 300 825 c 0
 314 825 325 814 325 800 c 0
 325 795 324 791 321 787 c 2
 79 400 l 1
 300 47 l 1
 529 413 l 2
 530 416 537 425 550 425 c 0
550 675 m 0
 536 675 525 686 525 700 c 2
 525 900 l 2
 525 914 536 925 550 925 c 0
 564 925 575 914 575 900 c 2
 575 700 l 2
 575 686 564 675 550 675 c 0
EndSplineSet
Validated: 1
EndChar

StartChar: K
Encoding: 75 75 81
Width: 350
Flags: W
HStem: 805 20G<293.5 307>
VStem: 25 300
LayerCount: 2
Fore
SplineSet
325 0 m 0
 325 -14 314 -25 300 -25 c 0
 297 -25 286 -24 279 -13 c 2
 29 387 l 2
 26 391 25 395 25 400 c 0
 25 405 26 409 29 413 c 2
 279 813 l 2
 280 816 287 825 300 825 c 0
 314 825 325 814 325 800 c 0
 325 795 324 791 321 787 c 2
 79 400 l 1
 321 13 l 2
 324 9 325 5 325 0 c 0
EndSplineSet
Validated: 1
EndChar

StartChar: L
Encoding: 76 76 82
Width: 600
Flags: W
HStem: 805 20G<293.5 301.5 543 557> 905 20G<543 557>
VStem: 525 50<675.198 924.802>
LayerCount: 2
Fore
SplineSet
575 400 m 0
 575 395 574 391 571 387 c 2
 321 -13 l 2
 320 -16 313 -25 300 -25 c 0
 297 -25 286 -24 279 -13 c 0
 29 387 29 387 29 387 c 2
 26 391 25 395 25 400 c 0
 25 405 26 409 29 413 c 2
 279 813 l 2
 280 816 287 825 300 825 c 0
 303 825 314 824 321 813 c 2
 571 413 l 2
 574 409 575 405 575 400 c 0
521 400 m 1
 300 753 l 1
 79 400 l 1
 300 47 l 1
 521 400 l 1
550 675 m 0
 536 675 525 686 525 700 c 2
 525 900 l 2
 525 914 536 925 550 925 c 0
 564 925 575 914 575 900 c 2
 575 700 l 2
 575 686 564 675 550 675 c 0
EndSplineSet
Validated: 1
EndChar

StartChar: M
Encoding: 77 77 83
Width: 350
Flags: W
HStem: 805 20G<43 51.5>
VStem: 25 300
LayerCount: 2
Fore
SplineSet
138 721 m 1053
50 -25 m 0
 36 -25 25 -14 25 0 c 0
 25 5 26 9 29 13 c 2
 271 400 l 1
 29 787 l 2
 26 791 25 795 25 800 c 0
 25 814 36 825 50 825 c 0
 53 825 64 824 71 813 c 2
 321 413 l 2
 324 409 325 405 325 400 c 0
 325 395 324 391 321 387 c 2
 71 -13 l 2
 70 -16 63 -25 50 -25 c 0
EndSplineSet
Validated: 1
EndChar

StartChar: N
Encoding: 78 78 84
Width: 600
Flags: W
HStem: 375 21G<548.5 557> 805 20G<293 301.5>
LayerCount: 2
Fore
SplineSet
575 400 m 0
 575 386 564 375 550 375 c 0
 547 375 536 376 529 387 c 2
 279 787 l 2
 276 791 275 795 275 800 c 0
 275 814 286 825 300 825 c 0
 303 825 314 824 321 813 c 2
 571 413 l 2
 574 409 575 405 575 400 c 0
325 0 m 0
 325 -14 314 -25 300 -25 c 0
 297 -25 286 -24 279 -13 c 2
 29 387 l 2
 26 391 25 395 25 400 c 0
 25 414 36 425 50 425 c 0
 53 425 64 424 71 413 c 2
 321 13 l 2
 324 9 325 5 325 0 c 0
EndSplineSet
Validated: 1
EndChar

StartChar: O
Encoding: 79 79 85
Width: 600
Flags: W
HStem: 375 50<25.1976 505>
LayerCount: 2
Fore
SplineSet
281 208 m 1053
300 -25 m 0
 286 -25 275 -14 275 0 c 0
 275 5 276 9 279 13 c 2
 505 375 l 1
 50 375 l 2
 36 375 25 386 25 400 c 0
 25 414 36 425 50 425 c 2
 550 425 l 2
 564 425 575 414 575 400 c 0
 575 395 574 391 571 387 c 2
 321 -13 l 2
 320 -16 313 -25 300 -25 c 0
EndSplineSet
Validated: 1
EndChar

StartChar: P
Encoding: 80 80 86
Width: 600
Flags: W
HStem: 375 21G<43 56.5 548.5 557> 805 20G<293.5 301.5>
LayerCount: 2
Fore
SplineSet
575 400 m 0
 575 386 564 375 550 375 c 0
 547 375 536 376 529 387 c 2
 300 753 l 1
 71 387 l 2
 70 384 63 375 50 375 c 0
 36 375 25 386 25 400 c 0
 25 405 26 409 29 413 c 2
 279 813 l 2
 280 816 287 825 300 825 c 0
 303 825 314 824 321 813 c 2
 571 413 l 2
 574 409 575 405 575 400 c 0
EndSplineSet
Validated: 1
EndChar

StartChar: Q
Encoding: 81 81 87
Width: 600
Flags: W
LayerCount: 2
Fore
SplineSet
550 425 m 0
 564 425 575 414 575 400 c 0
 575 395 574 391 571 387 c 2
 321 -13 l 2
 320 -16 313 -25 300 -25 c 0
 297 -25 286 -24 279 -13 c 2
 29 387 l 2
 26 391 25 395 25 400 c 0
 25 414 36 425 50 425 c 0
 53 425 64 424 71 413 c 2
 300 47 l 1
 529 413 l 2
 530 416 537 425 550 425 c 0
EndSplineSet
Validated: 1
EndChar

StartChar: R
Encoding: 82 82 88
Width: 600
Flags: W
HStem: 375 21G<43 56.5> 805 20G<293.5 301.5 543 557> 905 20G<543 557>
VStem: 525 50<675.198 924.802>
LayerCount: 2
Fore
SplineSet
254 709 m 1053
300 -25 m 0
 286 -25 275 -14 275 0 c 0
 275 5 276 9 279 13 c 2
 521 400 l 1
 300 753 l 1
 71 387 l 2
 70 384 63 375 50 375 c 0
 36 375 25 386 25 400 c 0
 25 405 26 409 29 413 c 2
 279 813 l 2
 280 816 287 825 300 825 c 0
 303 825 314 824 321 813 c 2
 571 413 l 2
 574 409 575 405 575 400 c 0
 575 395 574 391 571 387 c 2
 321 -13 l 2
 320 -16 313 -25 300 -25 c 0
550 675 m 0
 536 675 525 686 525 700 c 2
 525 900 l 2
 525 914 536 925 550 925 c 0
 564 925 575 914 575 900 c 2
 575 700 l 2
 575 686 564 675 550 675 c 0
EndSplineSet
Validated: 1
EndChar

StartChar: S
Encoding: 83 83 89
Width: 600
Flags: W
HStem: 375 21G<548.5 557> 805 20G<293.5 301.5>
LayerCount: 2
Fore
SplineSet
575 400 m 0
 575 386 564 375 550 375 c 0
 547 375 536 376 529 387 c 2
 300 753 l 1
 79 400 l 1
 321 13 l 2
 324 9 325 5 325 0 c 0
 325 -14 314 -25 300 -25 c 0
 297 -25 286 -24 279 -13 c 2
 29 387 l 2
 26 391 25 395 25 400 c 0
 25 405 26 409 29 413 c 2
 279 813 l 2
 280 816 287 825 300 825 c 0
 303 825 314 824 321 813 c 2
 571 413 l 2
 574 409 575 405 575 400 c 0
EndSplineSet
Validated: 1
EndChar

StartChar: T
Encoding: 84 84 90
Width: 600
Flags: W
HStem: 375 21G<43 56.5> 805 20G<293.5 307>
LayerCount: 2
Fore
SplineSet
50 375 m 0
 36 375 25 386 25 400 c 0
 25 405 26 409 29 413 c 2
 279 813 l 2
 280 816 287 825 300 825 c 0
 314 825 325 814 325 800 c 0
 325 795 324 791 321 787 c 2
 71 387 l 2
 70 384 63 375 50 375 c 0
300 -25 m 0
 286 -25 275 -14 275 0 c 0
 275 5 276 9 279 13 c 2
 529 413 l 2
 530 416 537 425 550 425 c 0
 564 425 575 414 575 400 c 0
 575 395 574 391 571 387 c 2
 321 -13 l 2
 320 -16 313 -25 300 -25 c 0
EndSplineSet
Validated: 1
EndChar

StartChar: U
Encoding: 85 85 91
Width: 600
Flags: W
HStem: 375 50<95 574.802>
LayerCount: 2
Fore
SplineSet
279 206 m 1053
25 400 m 0
 25 414 36 425 50 425 c 2
 550 425 l 2
 564 425 575 414 575 400 c 0
 575 386 564 375 550 375 c 2
 95 375 l 1
 321 13 l 2
 324 9 325 5 325 0 c 0
 325 -14 314 -25 300 -25 c 0
 297 -25 286 -24 279 -13 c 2
 29 387 l 2
 26 391 25 395 25 400 c 0
EndSplineSet
Validated: 1
EndChar

StartChar: V
Encoding: 86 86 92
Width: 600
Flags: W
HStem: 805 20G<293 301.5 543 557> 905 20G<543 557>
VStem: 525 50<675.198 924.802>
LayerCount: 2
Fore
SplineSet
267 710 m 1053
275 800 m 0
 275 814 286 825 300 825 c 0
 303 825 314 824 321 813 c 2
 571 413 l 2
 574 409 575 405 575 400 c 0
 575 395 574 391 571 387 c 2
 321 -13 l 2
 320 -16 313 -25 300 -25 c 0
 297 -25 286 -24 279 -13 c 2
 29 387 l 2
 26 391 25 395 25 400 c 0
 25 414 36 425 50 425 c 0
 53 425 64 424 71 413 c 2
 300 47 l 1
 521 400 l 1
 279 787 l 2
 276 791 275 795 275 800 c 0
550 675 m 0
 536 675 525 686 525 700 c 2
 525 900 l 2
 525 914 536 925 550 925 c 0
 564 925 575 914 575 900 c 2
 575 700 l 2
 575 686 564 675 550 675 c 0
EndSplineSet
Validated: 1
EndChar

StartChar: W
Encoding: 87 87 93
Width: 600
Flags: W
HStem: 375 50<95 574.802> 805 20G<293.5 307>
LayerCount: 2
Fore
SplineSet
300 825 m 0
 314 825 325 814 325 800 c 0
 325 795 324 791 321 787 c 2
 95 425 l 1
 550 425 l 2
 564 425 575 414 575 400 c 0
 575 386 564 375 550 375 c 2
 95 375 l 1
 321 13 l 2
 324 9 325 5 325 0 c 0
 325 -14 314 -25 300 -25 c 0
 297 -25 286 -24 279 -13 c 2
 29 387 l 2
 26 391 25 395 25 400 c 0
 25 405 26 409 29 413 c 2
 279 813 l 2
 280 816 287 825 300 825 c 0
EndSplineSet
Validated: 1
EndChar

StartChar: X
Encoding: 88 88 94
Width: 600
Flags: W
HStem: 375 21G<43 56.5> 805 20G<293.5 301.5>
LayerCount: 2
Fore
SplineSet
300 -25 m 0
 286 -25 275 -14 275 0 c 0
 275 5 276 9 279 13 c 2
 521 400 l 1
 300 753 l 1
 71 387 l 2
 70 384 63 375 50 375 c 0
 36 375 25 386 25 400 c 0
 25 405 26 409 29 413 c 2
 279 813 l 2
 280 816 287 825 300 825 c 0
 303 825 314 824 321 813 c 2
 571 413 l 2
 574 409 575 405 575 400 c 0
 575 395 574 391 571 387 c 2
 321 -13 l 2
 320 -16 313 -25 300 -25 c 0
EndSplineSet
Validated: 1
EndChar

StartChar: Z
Encoding: 90 90 95
Width: 600
Flags: W
HStem: 375 21G<548.5 557> 805 20G<293.5 301.5 543 557> 905 20G<543 557>
VStem: 525 50<675.198 924.802>
LayerCount: 2
Fore
SplineSet
247 713 m 1053
575 400 m 0
 575 386 564 375 550 375 c 0
 547 375 536 376 529 387 c 2
 300 753 l 1
 79 400 l 1
 321 13 l 2
 324 9 325 5 325 0 c 0
 325 -14 314 -25 300 -25 c 0
 297 -25 286 -24 279 -13 c 2
 29 387 l 2
 26 391 25 395 25 400 c 0
 25 405 26 409 29 413 c 2
 279 813 l 2
 280 816 287 825 300 825 c 0
 303 825 314 824 321 813 c 2
 571 413 l 2
 574 409 575 405 575 400 c 0
550 675 m 0
 536 675 525 686 525 700 c 2
 525 900 l 2
 525 914 536 925 550 925 c 0
 564 925 575 914 575 900 c 2
 575 700 l 2
 575 686 564 675 550 675 c 0
EndSplineSet
Validated: 1
EndChar

StartChar: Agrave
Encoding: 192 192 96
Width: 600
Flags: W
HStem: 375 50<95 505> 805 20G<293.5 301.5>
LayerCount: 2
Fore
SplineSet
505 425 m 1
 300 753 l 1
 95 425 l 1
 505 425 l 1
50 375 m 2
 36 375 25 386 25 400 c 0
 25 405 26 409 29 413 c 2
 279 813 l 2
 280 816 287 825 300 825 c 0
 303 825 314 824 321 813 c 2
 571 413 l 2
 574 409 575 405 575 400 c 0
 575 386 564 375 550 375 c 2
 50 375 l 2
EndSplineSet
Validated: 1
EndChar

StartChar: Aacute
Encoding: 193 193 97
Width: 600
Flags: W
HStem: 375 50<95 505> 805 20G<293.5 307>
LayerCount: 2
Fore
SplineSet
274 727 m 1053
50 375 m 2
 36 375 25 386 25 400 c 0
 25 405 26 409 29 413 c 2
 279 813 l 2
 280 816 287 825 300 825 c 0
 314 825 325 814 325 800 c 0
 325 795 324 791 321 787 c 2
 95 425 l 1
 550 425 l 2
 564 425 575 414 575 400 c 0
 575 395 574 391 571 387 c 2
 321 -13 l 2
 320 -16 313 -25 300 -25 c 0
 286 -25 275 -14 275 0 c 0
 275 5 276 9 279 13 c 2
 505 375 l 1
 50 375 l 2
EndSplineSet
Validated: 1
EndChar

StartChar: Ograve
Encoding: 210 210 98
Width: 600
Flags: W
HStem: 375 50<25.1976 505> 805 20G<293 301.5>
LayerCount: 2
Fore
SplineSet
258 720 m 1053
275 800 m 0
 275 814 286 825 300 825 c 0
 303 825 314 824 321 813 c 2
 571 413 l 2
 574 409 575 405 575 400 c 0
 575 395 574 391 571 387 c 2
 321 -13 l 2
 320 -16 313 -25 300 -25 c 0
 286 -25 275 -14 275 0 c 0
 275 5 276 9 279 13 c 2
 505 375 l 1
 50 375 l 2
 36 375 25 386 25 400 c 0
 25 414 36 425 50 425 c 2
 505 425 l 1
 279 787 l 2
 276 791 275 795 275 800 c 0
EndSplineSet
Validated: 1
EndChar

StartChar: Ugrave
Encoding: 217 217 99
Width: 600
Flags: W
HStem: 375 50<95 505> 805 20G<293 301.5>
LayerCount: 2
Fore
SplineSet
25 400 m 0
 25 414 36 425 50 425 c 2
 505 425 l 1
 279 787 l 2
 276 791 275 795 275 800 c 0
 275 814 286 825 300 825 c 0
 303 825 314 824 321 813 c 2
 571 413 l 2
 574 409 575 405 575 400 c 0
 575 386 564 375 550 375 c 2
 95 375 l 1
 321 13 l 2
 324 9 325 5 325 0 c 0
 325 -14 314 -25 300 -25 c 0
 297 -25 286 -24 279 -13 c 2
 29 387 l 2
 26 391 25 395 25 400 c 0
EndSplineSet
Validated: 1
EndChar

StartChar: Uacute
Encoding: 218 218 100
Width: 600
Flags: W
HStem: 375 50<95 505>
LayerCount: 2
Fore
SplineSet
505 375 m 1
 95 375 l 1
 300 47 l 1
 505 375 l 1
25 400 m 0
 25 414 36 425 50 425 c 2
 550 425 l 2
 564 425 575 414 575 400 c 0
 575 395 574 391 571 387 c 2
 321 -13 l 2
 320 -16 313 -25 300 -25 c 0
 297 -25 286 -24 279 -13 c 0
 29 387 29 387 29 387 c 2
 26 391 25 395 25 400 c 0
EndSplineSet
Validated: 1
EndChar

StartChar: agrave
Encoding: 224 224 101
Width: 400
Flags: W
HStem: 375 50<109 291> 805 20G<191 205.5>
VStem: 50 300<375.198 419.5>
LayerCount: 2
Fore
SplineSet
291 425 m 1
 200 716 l 1
 109 425 l 1
 291 425 l 1
75 375 m 2
 61 375 50 386 50 400 c 0
 50 403 50 405 51 407 c 2
 176 807 l 2
 176 808 182 825 200 825 c 0
 211 825 221 818 224 807 c 2
 349 407 l 2
 350 405 350 403 350 400 c 0
 350 386 339 375 325 375 c 2
 75 375 l 2
EndSplineSet
Validated: 1
EndChar

StartChar: aacute
Encoding: 225 225 102
Width: 400
Flags: W
HStem: 805 20G<190.5 207>
VStem: 176 49<-7 14.7742 781.8 807>
LayerCount: 2
Fore
SplineSet
75 325 m 0
 61 325 50 336 50 350 c 0
 50 352 50 355 51 357 c 2
 176 807 l 2
 176 807 181 825 200 825 c 0
 214 825 225 814 225 800 c 0
 225 798 225 795 224 793 c 2
 113 392 l 1
 316 473 l 2
 319 474 322 475 325 475 c 0
 339 475 350 464 350 450 c 0
 350 448 350 445 349 443 c 2
 224 -7 l 2
 224 -7 219 -25 200 -25 c 0
 186 -25 175 -14 175 0 c 0
 175 2 175 5 176 7 c 2
 287 408 l 1
 84 327 l 2
 81 326 78 325 75 325 c 0
EndSplineSet
Validated: 1
EndChar

StartChar: ograve
Encoding: 242 242 103
Width: 400
Flags: W
HStem: 375 50<50.1976 280> 805 20G<68 76.5>
VStem: 50 300<380.75 424.595>
LayerCount: 2
Fore
SplineSet
50 800 m 0
 50 814 61 825 75 825 c 0
 78 825 89 824 96 813 c 0
 348 411 348 411 348 409 c 0
 349 406 350 403 350 400 c 0
 350 395 349 391 346 387 c 2
 96 -13 l 2
 95 -16 88 -25 75 -25 c 0
 61 -25 50 -14 50 0 c 0
 50 5 51 9 54 13 c 2
 280 375 l 1
 75 375 l 2
 61 375 50 386 50 400 c 0
 50 414 61 425 75 425 c 2
 280 425 l 1
 54 787 l 2
 51 791 50 795 50 800 c 0
EndSplineSet
Validated: 1
EndChar

StartChar: ugrave
Encoding: 249 249 104
Width: 400
Flags: W
HStem: 805 20G<193 209.5>
VStem: 176 49<-7 18.2 785.226 807>
LayerCount: 2
Fore
SplineSet
325 325 m 0
 322 325 319 326 316 327 c 2
 113 408 l 1
 224 7 l 2
 225 5 225 2 225 0 c 0
 225 -14 214 -25 200 -25 c 0
 181 -25 176 -7 176 -7 c 2
 51 443 l 2
 50 445 50 448 50 450 c 0
 50 464 61 475 75 475 c 0
 78 475 81 474 84 473 c 2
 287 392 l 1
 176 793 l 2
 175 795 175 798 175 800 c 0
 175 814 186 825 200 825 c 0
 219 825 224 807 224 807 c 2
 349 357 l 2
 350 355 350 352 350 350 c 0
 350 336 339 325 325 325 c 0
EndSplineSet
Validated: 1
EndChar

StartChar: uacute
Encoding: 250 250 105
Width: 400
Flags: W
HStem: 375 50<109 291>
VStem: 50 300<380.5 424.802>
LayerCount: 2
Fore
SplineSet
291 375 m 1
 109 375 l 1
 200 84 l 1
 291 375 l 1
75 425 m 2
 325 425 l 2
 339 425 350 414 350 400 c 0
 350 397 350 395 349 393 c 2
 224 -7 l 2
 221 -18 211 -25 200 -25 c 0
 182 -25 176 -8 176 -7 c 2
 51 393 l 2
 50 395 50 397 50 400 c 0
 50 414 61 425 75 425 c 2
EndSplineSet
Validated: 1
EndChar

StartChar: colon
Encoding: 58 58 106
Width: 100
VWidth: 200
Flags: W
HStem: -125 250<0.197601 49.8024>
VStem: 0 50<-124.802 124.802>
LayerCount: 2
Fore
SplineSet
25 -125 m 0
 11 -125 0 -114 0 -100 c 2
 0 100 l 2
 0 114 11 125 25 125 c 0
 39 125 50 114 50 100 c 2
 50 -100 l 2
 50 -114 39 -125 25 -125 c 0
EndSplineSet
EndChar
